<?xml version="1.0" encoding="UTF-8"?>
<svg width="406px" height="51px" viewBox="0 0 406 51" version="1.1" xmlns="http://www.w3.org/2000/svg" xmlns:xlink="http://www.w3.org/1999/xlink">
    <title>Logo/Inline</title>
    <defs>
        <polygon id="path-1" points="0.0007 0.268 405.705 0.268 405.705 49 0.0007 49"></polygon>
    </defs>
    <g id="Logo/Inline" stroke="none" stroke-width="1" fill="none" fill-rule="evenodd">
        <g id="Group-20">
            <polygon id="Fill-1" fill="#01AEEF" points="38.192 38.4239 48.45 38.4239 48.45 1.9999 38.192 1.9999"></polygon>
            <g id="Group-19" transform="translate(0.000000, 0.731900)">
                <mask id="mask-2" fill="white">
                    <use xlink:href="#path-1"></use>
                </mask>
                <g id="Clip-3"></g>
                <path d="M54.04,37.692 L64.298,37.692 L64.298,15.156 L54.04,15.156 L54.04,37.692 Z M52.907,6.007 C52.907,2.768 55.39,0.268 59.169,0.268 C62.949,0.268 65.432,2.598 65.432,5.837 C65.432,9.247 62.949,11.747 59.169,11.747 C55.39,11.747 52.907,9.247 52.907,6.007 L52.907,6.007 Z" id="Fill-2" fill="#01AEEF" mask="url(#mask-2)"></path>
                <path d="M67.8215,22.2358 C67.8215,12.9738 74.7855,6.3818 84.6105,6.3818 C91.2515,6.3818 96.3255,9.5068 98.3225,14.8488 L90.3865,19.1108 C88.9835,16.2128 86.9315,14.9628 84.5565,14.9628 C80.9935,14.9628 78.1865,17.5758 78.1865,22.2358 C78.1865,27.0088 80.9935,29.6228 84.5565,29.6228 C86.9315,29.6228 88.9835,28.3728 90.3865,25.4748 L98.3225,29.7368 C96.3255,35.0778 91.2515,38.2028 84.6105,38.2028 C74.7855,38.2028 67.8215,31.6118 67.8215,22.2358" id="Fill-4" fill="#01AEEF" mask="url(#mask-2)"></path>
                <polygon id="Fill-5" fill="#01AEEF" mask="url(#mask-2)" points="114.7092 26.8954 111.6872 30.1344 111.6872 37.6914 101.4292 37.6914 101.4292 1.2684 111.6872 1.2684 111.6872 17.6334 122.1592 6.8934 134.3062 6.8934 122.1592 20.0764 135.3322 37.6914 122.9152 37.6914"></polygon>
                <polygon id="Fill-6" fill="#2E3092" mask="url(#mask-2)" points="139.897 37.692 143.892 37.692 143.892 1.268 139.897 1.268"></polygon>
                <path d="M176.1809,20.3608 L176.1809,37.6918 L172.3479,37.6918 L172.3479,20.7578 C172.3479,14.4508 169.2169,11.2118 163.8189,11.2118 C157.7179,11.2118 153.8849,15.1898 153.8849,22.0078 L153.8849,37.6918 L150.0519,37.6918 L150.0519,7.8028 L153.7229,7.8028 L153.7229,13.3148 C155.7749,9.6778 159.6079,7.5748 164.5199,7.5748 C171.4299,7.5748 176.1809,11.7798 176.1809,20.3608" id="Fill-7" fill="#2E3092" mask="url(#mask-2)"></path>
                <path d="M196.9485,35.8735 C195.4365,37.2935 193.1695,37.9765 190.9565,37.9765 C185.6115,37.9765 182.6415,34.7935 182.6415,29.2815 L182.6415,11.2115 L177.5675,11.2115 L177.5675,7.8025 L182.6415,7.8025 L182.6415,1.2685 L186.4745,1.2685 L186.4745,7.8025 L195.1125,7.8025 L195.1125,11.2115 L186.4745,11.2115 L186.4745,29.0545 C186.4745,32.5775 188.2025,34.5095 191.3875,34.5095 C192.9535,34.5095 194.5185,33.9985 195.5985,32.9755 L196.9485,35.8735 Z" id="Fill-8" fill="#2E3092" mask="url(#mask-2)"></path>
                <path d="M200.0374,20.9858 L220.1744,20.9858 C219.6874,15.1328 215.6394,11.0418 210.0784,11.0418 C204.5724,11.0418 200.5224,15.1328 200.0374,20.9858 M223.7914,23.9978 L200.0374,23.9978 C200.4694,30.2478 205.0044,34.3958 211.2124,34.3958 C214.6674,34.3958 217.7444,33.0898 219.9034,30.4748 L222.0634,33.0898 C219.5254,36.2718 215.5854,37.9758 211.1044,37.9758 C202.2504,37.9758 196.2044,31.6118 196.2044,22.7468 C196.2044,13.8828 202.0894,7.5748 210.0784,7.5748 C218.0684,7.5748 223.8454,13.7688 223.8454,22.7468 C223.8454,23.0888 223.7914,23.5428 223.7914,23.9978" id="Fill-9" fill="#2E3092" mask="url(#mask-2)"></path>
                <polygon id="Fill-10" fill="#2E3092" mask="url(#mask-2)" points="227.866 37.692 231.699 37.692 231.699 1.268 227.866 1.268"></polygon>
                <polygon id="Fill-11" fill="#2E3092" mask="url(#mask-2)" points="237.953 37.692 241.786 37.692 241.786 1.268 237.953 1.268"></polygon>
                <path d="M248.068,37.692 L251.901,37.692 L251.901,7.803 L248.068,7.803 L248.068,37.692 Z M247.203,3.109 C247.203,1.575 248.446,0.268 250.011,0.268 C251.576,0.268 252.819,1.518 252.819,3.052 C252.819,4.7 251.63,6.007 250.011,6.007 C248.446,6.007 247.203,4.7 247.203,3.109 L247.203,3.109 Z" id="Fill-12" fill="#2E3092" mask="url(#mask-2)"></path>
                <path d="M281.0862,22.0082 C281.0862,15.5302 276.5522,11.0982 270.2892,11.0982 C264.0272,11.0982 259.5462,15.5302 259.5462,22.0082 C259.5462,28.4862 264.0272,32.9752 270.2892,32.9752 C276.5522,32.9752 281.0862,28.4862 281.0862,22.0082 L281.0862,22.0082 Z M284.8122,7.8022 L284.8122,34.0552 C284.8122,44.3402 280.0072,49.0002 270.6132,49.0002 C265.4312,49.0002 260.3562,47.3522 257.3872,44.3972 L259.3302,41.3282 C262.0292,43.8852 266.1332,45.4202 270.5052,45.4202 C277.6862,45.4202 280.9792,41.9532 280.9792,34.5662 L280.9792,30.7592 C278.6032,34.5662 274.5542,36.5552 269.9112,36.5552 C261.8142,36.5552 255.6592,30.5892 255.6592,22.0082 C255.6592,13.4282 261.8142,7.5752 269.9112,7.5752 C274.6622,7.5752 278.7652,9.6212 281.1412,13.5422 L281.1412,7.8022 L284.8122,7.8022 Z" id="Fill-13" fill="#2E3092" mask="url(#mask-2)"></path>
                <path d="M292.8548,20.9858 L312.9918,20.9858 C312.5048,15.1328 308.4568,11.0418 302.8958,11.0418 C297.3898,11.0418 293.3398,15.1328 292.8548,20.9858 M316.6088,23.9978 L292.8548,23.9978 C293.2868,30.2478 297.8218,34.3958 304.0298,34.3958 C307.4848,34.3958 310.5618,33.0898 312.7208,30.4748 L314.8808,33.0898 C312.3428,36.2718 308.4028,37.9758 303.9218,37.9758 C295.0678,37.9758 289.0218,31.6118 289.0218,22.7468 C289.0218,13.8828 294.9068,7.5748 302.8958,7.5748 C310.8858,7.5748 316.6628,13.7688 316.6628,22.7468 C316.6628,23.0888 316.6088,23.5428 316.6088,23.9978" id="Fill-14" fill="#2E3092" mask="url(#mask-2)"></path>
                <path d="M346.7376,20.3608 L346.7376,37.6918 L342.9046,37.6918 L342.9046,20.7578 C342.9046,14.4508 339.7736,11.2118 334.3756,11.2118 C328.2746,11.2118 324.4416,15.1898 324.4416,22.0078 L324.4416,37.6918 L320.6086,37.6918 L320.6086,7.8028 L324.2796,7.8028 L324.2796,13.3148 C326.3316,9.6778 330.1646,7.5748 335.0766,7.5748 C341.9866,7.5748 346.7376,11.7798 346.7376,20.3608" id="Fill-15" fill="#2E3092" mask="url(#mask-2)"></path>
                <path d="M350.5852,22.747 C350.5852,13.826 356.7392,7.575 365.2152,7.575 C370.0202,7.575 374.0682,9.564 376.3362,13.485 L373.4752,15.531 C371.5312,12.519 368.5082,11.098 365.2152,11.098 C359.0072,11.098 354.4722,15.758 354.4722,22.747 C354.4722,29.793 359.0072,34.396 365.2152,34.396 C368.5082,34.396 371.5312,33.032 373.4752,30.02 L376.3362,32.066 C374.0682,35.93 370.0202,37.976 365.2152,37.976 C356.7392,37.976 350.5852,31.668 350.5852,22.747" id="Fill-16" fill="#2E3092" mask="url(#mask-2)"></path>
                <path d="M381.8977,20.9858 L402.0347,20.9858 C401.5477,15.1328 397.4997,11.0418 391.9387,11.0418 C386.4327,11.0418 382.3827,15.1328 381.8977,20.9858 M405.6517,23.9978 L381.8977,23.9978 C382.3297,30.2478 386.8647,34.3958 393.0727,34.3958 C396.5277,34.3958 399.6047,33.0898 401.7637,30.4748 L403.9237,33.0898 C401.3857,36.2718 397.4457,37.9758 392.9647,37.9758 C384.1107,37.9758 378.0647,31.6118 378.0647,22.7468 C378.0647,13.8828 383.9497,7.5748 391.9387,7.5748 C399.9287,7.5748 405.7057,13.7688 405.7057,22.7468 C405.7057,23.0888 405.6517,23.5428 405.6517,23.9978" id="Fill-17" fill="#2E3092" mask="url(#mask-2)"></path>
                <path d="M23.8157,24.37 L23.8157,30.076 L6.0577,19.505 L23.8157,8.933 L23.8157,14.64 L31.9327,14.64 L34.8527,7.728 C31.4367,3.038 26.0897,0.433 19.3077,0.433 C8.1697,0.433 0.0007,8.301 0.0007,19.505 C0.0007,30.708 8.1697,38.577 19.3077,38.577 C26.0897,38.577 31.4367,35.971 34.8527,31.281 L31.9327,24.37 L23.8157,24.37 Z" id="Fill-18" fill="#01AEEF" mask="url(#mask-2)"></path>
            </g>
        </g>
    </g>
</svg>